<svg xmlns="http://www.w3.org/2000/svg" viewBox="0 0 2560 1440"><defs><style>.cls-1{fill:#001d2d;}.cls-2{fill:none;}</style></defs><title>Artboard 1</title><g id="Fidelity_Life_Logo" data-name="Fidelity Life Logo"><path class="cls-1" d="M1014.73,780c0-87.6-44.87-152.12-111.33-152.12-78.31,0-134,66.58-134,144.44,0,101.83,61.8,144.44,137.76,144.44,60.22,0,107.58-46,107.58-110.21H990.85c0,60.14-43,86.07-70.91,86.07-27.4,0-70.84-17-73.05-112.62ZM904.81,651c37.08,0,45.55,64.59,47.34,102.35H847.3C850.21,699.74,866.09,651,904.81,651Z"/><path class="cls-1" d="M1216,497c-24.49,0-45,16.55-45,45,0,26.48,21.85,43.69,45,43.69,23.83,0,45.68-17.21,45.68-43.69C1261.69,513.52,1241.83,497,1216,497Z"/><rect class="cls-1" x="1176.4" y="633.28" width="79.9" height="278.37"/><polygon class="cls-1" points="330.9 659.92 375.79 659.92 375.79 911.65 455.68 911.65 455.68 633.28 330.9 633.28 330.9 659.92"/><path class="cls-1" d="M1047.84,497V911.65h79.89V576.87A79.9,79.9,0,0,0,1047.84,497Z"/><path class="cls-1" d="M656.41,497V633.79a95.45,95.45,0,0,0-33.18-5.95c-78.32,0-134,66.58-134,144.44,0,101.83,57.37,144.44,121.95,144.44,23.13,0,45.24-19.43,45.24-19.43v14.36H736.3V576.87A79.9,79.9,0,0,0,656.41,497ZM615.79,892.58c-28.12,0-49.16-17.88-49.16-120.3,0-60.45,14.75-121.31,58-121.31,13.89,0,24.17,7,31.78,17.56v190.3S647.39,892.58,615.79,892.58Z"/><path class="cls-1" d="M1668.89,713.16V869.45c-.26.37-16.48,23.11-37.19,23.11-35.5,0-44-33-44-78.4V633.27H1403.93v-56.4A79.89,79.89,0,0,0,1324,497v136.3h-45v26.64h45V829.85c0,59,37,86.87,89.59,86.87,59.43,0,71.47-24.7,71.47-24.7V869.41s-16.34,23.15-37.22,23.15c-35.51,0-44-33-44-78.4V659.91h103.93V829.85c0,59,37,86.87,89.6,86.87,58.16,0,70.92-23.66,71.43-24.66v75c0,63.14-51.39,123.37-112.45,95.58,28.85,2.33,49.94-16.33,49.94-44.79,0-26.48-21.84-43.69-45-43.69-23.84,0-45.68,17.21-45.68,43.69,0,34.13,32.51,68,83.4,68,79.16,0,149.69-59.44,149.69-147.36V633.26A79.9,79.9,0,0,0,1668.89,713.16Z"/><path class="cls-1" d="M2097.05,352.45c-154.42,0-279.6,125.19-279.6,279.6v279.6h279.6c154.42,0,279.6-125.18,279.6-279.6V352.45Zm253,279.6c0,139.71-113.26,253-253,253h-253v-253c0-139.7,113.26-253,253-253h253Z"/><path class="cls-1" d="M2141.72,676.29c0,61.71,30.72,94,81.21,94,40.81,0,70.14-28.43,70.14-71.93h-15.63c0,40.76-26.93,58.34-45.85,58.34s-47.07-11.77-47.89-78.54h109.37c0-59.37-27.64-94.57-72.69-94.57C2172.44,583.61,2141.72,626.55,2141.72,676.29Zm79.62-79.1c24.67,0,33,39.07,35.88,62.94h-73.13C2186.08,625.57,2195.67,597.19,2221.34,597.19Z"/><path class="cls-1" d="M1930.07,497.05V767.16h42V539A42,42,0,0,0,1930.07,497.05Z"/><path class="cls-1" d="M2024.25,509.68c-12.87,0-23.65,8.7-23.65,23.66,0,13.91,11.48,23,23.65,23,12.53,0,24-9,24-23C2048.26,518.38,2037.82,509.68,2024.25,509.68Z"/><rect class="cls-1" x="2003.43" y="583.61" width="41.99" height="183.55"/><path class="cls-1" d="M377.93,462.59C298.76,462.59,228.24,522,228.24,610v23.33H183.35v26.64h44.89V991.55a79.89,79.89,0,0,0,79.89-79.9V581.41c0-65.94,53.72-122.92,112.46-95.57-26.92-2.17-49.95,14.24-49.95,44.79,0,26.48,21.85,43.69,45,43.69,23.83,0,45.68-17.21,45.68-43.69C461.33,495.41,428,462.59,377.93,462.59Z"/><path class="cls-1" d="M2076.45,575V809.2a42,42,0,0,0,42-42V601.66H2148v-18h-29.6V560c0-31.89,23.84-56,51.84-49.94-10.71,1.85-19,10.15-19,23.26,0,13.91,11.48,22.95,23.66,22.95,12.52,0,24-9,24-22.95,0-17.7-16.77-35.77-43.83-35.77C2113.51,497.57,2076.45,528.82,2076.45,575Z"/></g><g id="Guides"><rect class="cls-2" y="169.11" width="2560" height="1100.08"/><rect class="cls-2" y="169.11" width="183.35" height="183.35"/><rect class="cls-2" x="2376.65" y="169.11" width="183.35" height="183.35"/><rect class="cls-2" y="1085.84" width="183.35" height="183.35"/><rect class="cls-2" x="2376.65" y="1085.84" width="183.35" height="183.35"/></g></svg>