<?xml version="1.0" encoding="UTF-8"?><svg xmlns="http://www.w3.org/2000/svg" viewBox="0 0 102.87 63"><defs><style>.d{fill:#d5ac67;}.e{fill:#004539;}.f{fill:#010101;}</style></defs><g id="a"/><g id="b"><g id="c"><path class="f" d="M.92,62.63H.06v-4.64H3.46v.73H.93v3.91Zm-.08-2.5H3.16v.74H.85v-.74Z"/><rect class="f" x="3.72" y="59.9" width="4.64" height=".86" transform="translate(-54.31 66.18) rotate(-89.83)"/><polygon class="f" points="9.04 62.66 9.05 58.02 9.76 58.02 12.65 61.6 12.3 61.6 12.31 58.03 13.17 58.03 13.15 62.67 12.45 62.67 9.55 59.09 9.9 59.09 9.89 62.66 9.04 62.66"/><path class="f" d="M15.07,62.67l2.1-4.63h.85l2.08,4.64h-.9l-1.78-4.19h.34l-1.8,4.17h-.89Zm.96-1.07l.23-.67h2.5l.23,.68h-2.97Z"/><polygon class="f" points="22.01 62.69 22.02 58.06 22.73 58.06 25.63 61.64 25.28 61.64 25.29 58.07 26.14 58.07 26.13 62.71 25.42 62.7 22.52 59.13 22.87 59.13 22.86 62.7 22.01 62.69"/><path class="f" d="M30.84,62.79c-.35,0-.68-.06-.98-.18-.3-.12-.56-.28-.79-.5-.22-.21-.39-.47-.52-.76-.12-.29-.18-.61-.18-.96,0-.34,.06-.66,.19-.95,.12-.29,.3-.54,.53-.76,.23-.21,.49-.38,.79-.49,.3-.12,.63-.17,.99-.17,.38,0,.73,.07,1.04,.2,.31,.13,.58,.33,.79,.58l-.56,.52c-.17-.18-.35-.32-.56-.41-.21-.09-.43-.14-.67-.14-.24,0-.47,.04-.67,.12-.2,.08-.38,.19-.53,.34-.15,.15-.26,.32-.35,.52-.08,.2-.12,.42-.12,.65,0,.24,.04,.46,.12,.66,.08,.2,.19,.37,.34,.52,.15,.15,.32,.26,.52,.34,.2,.08,.42,.12,.67,.12,.24,0,.47-.04,.68-.13,.21-.09,.4-.23,.56-.41l.56,.53c-.22,.25-.48,.44-.8,.57-.31,.13-.66,.2-1.05,.2"/><rect class="f" x="32.95" y="59.99" width="4.64" height=".86" transform="translate(-25.25 95.5) rotate(-89.83)"/><path class="f" d="M37.61,62.74l2.1-4.63h.85l2.08,4.64h-.9l-1.78-4.19h.34l-1.8,4.17h-.89Zm.96-1.07l.23-.67h2.5l.23,.68h-2.97Z"/><polygon class="f" points="44.55 62.76 44.57 58.13 45.43 58.13 45.42 62.04 47.84 62.04 47.84 62.77 44.55 62.76"/><path class="f" d="M54.43,62.86c-.36,0-.71-.05-1.04-.16-.33-.1-.59-.24-.79-.4l.3-.67c.18,.15,.41,.27,.69,.37,.27,.1,.55,.15,.84,.15,.24,0,.44-.03,.59-.08,.15-.05,.26-.12,.33-.21,.07-.09,.11-.19,.11-.31,0-.14-.05-.26-.15-.34-.1-.09-.23-.16-.39-.21-.16-.05-.34-.1-.54-.14-.2-.04-.39-.1-.59-.16-.2-.06-.37-.14-.53-.23-.16-.1-.29-.22-.39-.38-.1-.16-.15-.36-.15-.61,0-.25,.07-.48,.2-.69,.14-.21,.34-.38,.62-.5s.63-.19,1.05-.19c.28,0,.55,.04,.83,.11,.27,.07,.51,.17,.71,.31l-.27,.67c-.21-.12-.42-.22-.64-.28-.22-.06-.43-.09-.64-.09-.24,0-.43,.03-.58,.09-.15,.06-.26,.13-.32,.22-.07,.09-.1,.2-.1,.32,0,.14,.05,.26,.15,.34s.23,.15,.39,.2,.34,.1,.54,.14c.2,.05,.4,.1,.59,.16,.19,.06,.37,.13,.53,.23,.16,.09,.29,.22,.39,.38,.1,.16,.15,.36,.15,.6,0,.25-.07,.48-.2,.68-.14,.21-.34,.38-.62,.5s-.63,.19-1.05,.19"/><path class="f" d="M60.66,62.88c-.36,0-.69-.06-1-.18-.3-.12-.57-.29-.79-.5-.22-.22-.4-.47-.52-.76-.12-.29-.18-.61-.18-.95,0-.34,.06-.66,.19-.95,.12-.29,.3-.54,.53-.75,.22-.21,.49-.38,.8-.5,.31-.12,.64-.18,.99-.18,.36,0,.69,.06,1,.18,.3,.12,.57,.29,.79,.5,.22,.22,.4,.47,.52,.76,.12,.29,.18,.61,.18,.95,0,.34-.06,.66-.19,.95-.12,.29-.3,.54-.53,.75-.23,.21-.49,.38-.79,.49-.3,.12-.63,.18-.99,.18m0-.76c.23,0,.45-.04,.65-.12,.2-.08,.37-.19,.52-.34,.15-.15,.26-.32,.34-.52,.08-.2,.12-.41,.12-.65,0-.24-.04-.46-.12-.65-.08-.2-.19-.37-.34-.52-.14-.15-.32-.26-.51-.34-.2-.08-.42-.12-.65-.12-.23,0-.45,.04-.65,.12-.2,.08-.37,.19-.52,.34-.15,.15-.26,.32-.35,.52-.08,.2-.12,.41-.12,.65,0,.23,.04,.45,.12,.65,.08,.2,.19,.37,.34,.52,.14,.15,.32,.26,.52,.34,.2,.08,.41,.12,.65,.12"/><polygon class="f" points="65.39 62.82 65.4 58.19 66.26 58.19 66.25 62.1 68.67 62.11 68.67 62.83 65.39 62.82"/><path class="f" d="M72.6,62.91c-.64,0-1.13-.18-1.49-.54-.36-.36-.54-.88-.53-1.55v-2.62h.87v2.58c0,.48,.09,.82,.3,1.04,.2,.22,.49,.33,.87,.33,.38,0,.67-.11,.87-.32,.2-.22,.31-.56,.31-1.04v-2.58h.85v2.62c0,.68-.19,1.19-.55,1.55-.36,.36-.86,.53-1.49,.53"/><polygon class="f" points="78.01 62.86 78.03 58.96 76.49 58.95 76.49 58.22 80.43 58.23 80.42 58.96 78.89 58.96 78.87 62.87 78.01 62.86"/><rect class="f" x="80.5" y="60.13" width="4.64" height=".86" transform="translate(22.01 143.2) rotate(-89.83)"/><path class="f" d="M87.99,62.96c-.36,0-.69-.06-1-.18-.3-.12-.57-.29-.79-.5-.22-.22-.4-.47-.52-.76-.12-.29-.18-.61-.18-.95,0-.34,.06-.66,.19-.95,.12-.29,.3-.54,.53-.75,.23-.21,.49-.38,.8-.5,.3-.12,.64-.18,.99-.18,.36,0,.69,.06,1,.18,.3,.12,.57,.29,.79,.5,.23,.22,.4,.47,.52,.76,.12,.29,.18,.61,.18,.95,0,.34-.06,.66-.19,.95-.12,.29-.3,.54-.52,.75s-.49,.38-.79,.49c-.3,.12-.63,.18-.99,.18m0-.76c.23,0,.45-.04,.65-.12,.2-.08,.37-.19,.52-.34s.26-.32,.34-.52c.08-.2,.12-.41,.12-.65,0-.24-.04-.46-.12-.65-.08-.2-.19-.37-.34-.52-.15-.15-.32-.26-.51-.34-.2-.08-.42-.12-.65-.12-.23,0-.45,.04-.65,.12-.2,.08-.37,.19-.52,.34-.15,.15-.26,.32-.35,.52-.08,.2-.12,.41-.12,.65,0,.23,.04,.45,.12,.65,.08,.2,.19,.37,.34,.52,.14,.15,.32,.26,.52,.34,.2,.08,.41,.12,.65,.12"/><polygon class="f" points="92.72 62.91 92.73 58.27 93.44 58.27 96.34 61.85 95.99 61.85 96 58.28 96.85 58.28 96.84 62.92 96.13 62.92 93.23 59.34 93.59 59.34 93.57 62.91 92.72 62.91"/><path class="f" d="M100.85,63c-.36,0-.71-.05-1.04-.16-.33-.1-.59-.24-.79-.4l.3-.67c.18,.15,.41,.27,.69,.37,.27,.1,.55,.15,.84,.15,.24,0,.44-.03,.59-.08,.15-.05,.26-.12,.33-.21,.07-.09,.11-.19,.11-.31,0-.14-.05-.26-.15-.34-.1-.09-.23-.16-.39-.21-.16-.05-.34-.1-.54-.14-.2-.04-.39-.1-.59-.16-.2-.06-.37-.14-.53-.23-.16-.1-.29-.22-.39-.38-.1-.16-.15-.36-.15-.61,0-.25,.07-.48,.2-.69,.13-.21,.34-.38,.62-.5s.63-.19,1.05-.18c.28,0,.55,.04,.83,.11,.27,.07,.51,.17,.71,.31l-.27,.67c-.21-.12-.42-.22-.64-.28-.22-.06-.43-.09-.64-.09-.24,0-.43,.03-.58,.08-.15,.06-.26,.13-.32,.22-.07,.09-.1,.2-.1,.32,0,.14,.05,.26,.15,.34s.23,.15,.39,.2c.16,.05,.34,.1,.54,.14,.2,.05,.4,.1,.59,.16,.19,.06,.37,.13,.53,.23,.16,.09,.29,.22,.39,.38,.1,.16,.15,.36,.15,.6,0,.25-.07,.48-.2,.68-.14,.21-.34,.38-.62,.5-.28,.12-.63,.19-1.05,.19"/><path class="e" d="M21.38,7.68c-.42,.06-.83,.1-1.24,.1-.67,0-1.38-.1-2.15-.3-.85,1.02-1.82,2.09-2.89,3.21-1.05,1.14-2.08,2.2-3.09,3.19-.99,1-1.9,1.87-2.71,2.62-.81,.75-1.39,1.26-1.72,1.53-.45,.33-.87,.63-1.23,.88-.36,.28-.69,.39-.99,.39-.45,0-.67-.36-.67-1.07v-2.13c0-1.28,.21-3.81,.28-5.15,.04-1.32,.13-2.47,.21-3.41-1.07,.19-1.92,.29-2.55,.29-.65,0-1.5-.1-2.55-.3,.08,.95,.13,2.09,.19,3.41,.06,1.34,.24,3.87,.24,5.15v2.07c-.01,1.28-.03,2.68-.06,4.18-.02,1.5-.05,3-.09,4.46-.04,1.48-.09,2.86-.15,4.18-.06,1.32-.13,2.41-.21,3.27,.87-.08,1.72-.11,2.55-.11,.83,0,1.68,.04,2.55,.13-.19-1.62-.31-3.24-.36-4.84s-.07-3.24-.06-4.93v-1.28l2.75-2.3,2.51-2.1c1.96-1.93,4.04-3.82,6.19-5.67,2.18-1.87,4.45-3.74,6.83-5.66-.63,.08-1.16,.14-1.58,.19"/><path class="e" d="M38.84,7.11c-.24-.02-.53-.04-.87-.04-2.74,0-5.24,2.02-7.48,6.08l-.12-.06c0-.71,.02-1.48,.05-2.27,.02-.79,.1-1.85,.27-3.22-.41,.08-.81,.14-1.18,.19-.38,.06-.75,.1-1.09,.1-.42,0-.81-.04-1.18-.1-.38-.06-.77-.12-1.18-.2,.11,2.49,.16,4.7,.18,6.61s0,3.61,0,5.09v1.8c-.01,3.22-.02,5.92-.05,8.11-.03,2.21-.09,3.95-.21,5.23,.75-.08,1.54-.11,2.37-.11,.75,0,1.52,.04,2.27,.12-.12-.83-.17-1.91-.19-3.26-.02-1.32-.03-3.26-.02-5.78l.02-6.22c0-1.09,.14-2.11,.4-3.08,.28-.97,.66-1.79,1.15-2.48,.48-.69,1.09-1.24,1.8-1.65,.71-.41,1.52-.63,2.43-.62,.57,0,1.12,.1,1.68,.28,.53,.2,.91,.42,1.1,.64l.4-.28c0-.77,.02-1.6,.05-2.53,.04-.91,.16-1.6,.36-2.05-.37-.16-.69-.26-.95-.3"/><path class="e" d="M47.46,24.08l.02-5.86c0-1.7,.03-3.49,.1-5.35,.06-1.85,.19-3.61,.39-5.23-1.07,.19-1.92,.29-2.55,.29-.63,0-1.48-.1-2.54-.3,.19,1.62,.31,3.38,.36,5.23,.05,1.85,.07,3.65,.06,5.35l-.02,5.86c0,1.7-.03,3.47-.1,5.35-.06,1.85-.19,3.55-.39,5.05,.87-.08,1.72-.11,2.55-.11,.83,0,1.68,.05,2.55,.13-.19-1.5-.31-3.2-.36-5.05-.05-1.88-.07-3.65-.06-5.35"/><path class="e" d="M76.42,14.82c-.65-1.74-1.51-3.18-2.59-4.33-1.06-1.13-2.3-1.96-3.68-2.52-1.4-.56-2.8-.82-4.24-.82-1.4,0-2.62,.19-3.73,.6-1.09,.41-2.02,.92-2.81,1.55-.77,.61-1.4,1.28-1.88,1.97-.5,.69-.87,1.34-1.15,1.95h-.1c0-.91,.03-1.82,.11-2.72,.08-.89,.2-1.83,.34-2.82-1.05,.19-1.9,.29-2.53,.29-.65,0-1.5-.1-2.55-.3,.08,.99,.13,2.15,.19,3.51,.06,1.34,.09,2.76,.13,4.26,.03,1.48,.05,2.98,.06,4.48,.01,1.52,.03,2.9,.03,4.18l-.03,9.16c0,1.2-.03,2.55-.05,4.05-.02,1.48-.36,8.25-.44,9.2,1.05-.19,1.89-.29,2.55-.29,.63,0,1.48,.1,2.53,.3-.06-.95-.37-7.72-.39-9.2-.01-1.5-.01-2.84,0-4.05v-3.55h.11c1.76,3.58,4.72,5.38,8.87,5.4,1.46,0,2.94-.27,4.4-.82,1.48-.53,2.79-1.39,3.93-2.55s2.08-2.64,2.82-4.39c.72-1.77,1.08-3.86,1.08-6.27,0-2.41-.32-4.5-.97-6.26m-4.49,10.96c-.32,1.48-.82,2.78-1.49,3.88-.65,1.12-1.49,1.99-2.5,2.6-.99,.63-2.17,.92-3.51,.92-5.51-.02-8.24-3.93-8.21-11.77,0-1.62,.15-3.16,.45-4.6,.32-1.46,.82-2.72,1.49-3.78,.67-1.08,1.56-1.93,2.63-2.58,1.07-.63,2.37-.94,3.87-.94,.91,0,1.83,.16,2.76,.52,.95,.34,1.79,.95,2.52,1.84,.73,.87,1.34,2.06,1.79,3.54,.47,1.46,.7,3.32,.69,5.59,0,1.7-.17,3.28-.49,4.77"/><path class="e" d="M102.02,32.93c-.22,.02-.41,.02-.59,.02-.57,0-.99-.14-1.28-.4-.28-.26-.49-.59-.65-.99-.14-.4-.23-.85-.25-1.36-.02-.49-.02-.99-.02-1.44,0-2.37,.05-4.62,.14-6.75,.09-2.13,.11-4.26,.12-6.41,0-1.24-.21-2.37-.66-3.42-.45-1.03-1.06-1.92-1.85-2.65-.79-.75-1.75-1.31-2.88-1.71-1.14-.4-2.39-.6-3.73-.6-1.52,0-2.98,.21-4.42,.66-1.42,.45-2.98,1.31-4.68,2.59v2.92h.6c.66-1.2,1.62-2.12,2.93-2.81,1.31-.67,2.71-1,4.21-.99,1.12,0,2.09,.2,2.88,.6,.79,.4,1.44,.91,1.91,1.56,.49,.63,.84,1.39,1.08,2.25,.21,.87,.33,1.78,.33,2.72,0,.55-.06,1.03-.18,1.38-.1,.36-.44,.67-.99,.92-.53,.26-1.38,.51-2.55,.76-1.14,.23-2.72,.52-4.78,.85-2.47,.41-4.42,1.23-5.85,2.47-1.4,1.24-2.12,2.99-2.13,5.24,0,1.09,.21,2.07,.64,2.92,.43,.83,.98,1.56,1.69,2.18,.69,.59,1.5,1.03,2.38,1.31,.91,.26,1.83,.4,2.78,.4,1.91,0,3.53-.33,4.86-.95,1.32-.63,2.65-1.63,4.01-2.99,.12,.99,.49,1.78,1.12,2.41,.65,.61,1.56,.93,2.78,.94,.75,0,1.44-.05,2.05-.15,.63-.12,1.15-.27,1.56-.45v-1.24c-.19,.1-.39,.18-.59,.2m-7.09-3.89c-.64,1.04-1.55,1.97-2.73,2.76-1.21,.79-2.51,1.18-3.93,1.17-1.24,0-2.39-.46-3.39-1.37-1.02-.91-1.51-2.23-1.51-4.01,0-1.05,.2-1.91,.6-2.6,.4-.67,.91-1.24,1.58-1.69,.65-.43,1.4-.8,2.25-1.06,.85-.25,1.72-.47,2.59-.64,.85-.15,1.72-.33,2.57-.47,.85-.16,1.58-.33,2.23-.57l-.26,8.49Z"/><path class="e" d="M6.66,19.78c8.88,14.02,23.86,24.02,40.01,27.62,18.6,4.11,39.33-1.22,55.93-10,0,0-.47,1.61-.19,3.24,.16,.96,.47,1.79,.47,1.79C37.57,70.03,3.91,23.07,3.15,22.02l3.51-2.24Z"/><path class="d" d="M45.44,0l-3.82,4.78s.18,.14,.49,.34c.95-.63,2.1-1,3.32-1.02,1.22,.02,2.37,.4,3.31,1.04,.32-.2,.5-.33,.5-.33l-3.79-4.81Z"/></g></g></svg>